<?xml version="1.0" encoding="utf-8"?>
<!DOCTYPE svg PUBLIC "-//W3C//DTD SVG 1.1//EN" "http://www.w3.org/Graphics/SVG/1.1/DTD/svg11.dtd">
<svg version="1.1" id="Layer_1" xmlns="http://www.w3.org/2000/svg" xmlns:xlink="http://www.w3.org/1999/xlink" x="0px" y="0px"
	 width="48px" height="48px" viewBox="0 0 48 48" enable-background="new 0 0 48 48" xml:space="preserve">
<path fill="#FADA00" d="M23.917,0.416c-13.255,0-24,10.745-24,24s10.745,24,24,24s24-10.745,24-24S37.172,0.416,23.917,0.416z
	 M34.118,20.269h-3.897v-3.391h-6.377v5.238h5.137v3.861h-5.137v5.977h6.377v-3.392h3.897v7.253h-18.04v-3.861h2.418V16.878h-2.418
	c-1.83,0-2.85,0.48-3.412,1.175c0.875,0.459,1.467,1.365,1.467,2.432c0,1.544-1.239,2.787-2.784,2.787
	c-1.54,0-2.745-1.117-2.753-2.653c0,0,0-0.793,0-0.796c0-5.777,3.742-6.805,7.482-6.805h18.04V20.269z"/>
</svg>
