<?xml version="1.0" encoding="utf-8"?>
<!DOCTYPE svg PUBLIC "-//W3C//DTD SVG 1.1//EN" "http://www.w3.org/Graphics/SVG/1.1/DTD/svg11.dtd">
<svg version="1.1" id="Layer_1" xmlns="http://www.w3.org/2000/svg" xmlns:xlink="http://www.w3.org/1999/xlink" x="0px" y="0px"
	 width="522px" height="48px" viewBox="0 0 522 48" enable-background="new 0 0 522 48" xml:space="preserve">
<linearGradient id="SVGID_1_" gradientUnits="userSpaceOnUse" x1="0" y1="24.0005" x2="522.0005" y2="24.0005">
	<stop  offset="0" style="stop-color:#9E83DB"/>
	<stop  offset="1" style="stop-color:#E3565B"/>
</linearGradient>
<path fill="url(#SVGID_1_)" d="M423.17,4.364c0-2.448,1.915-4.364,4.363-4.364c2.447,0,4.416,1.916,4.416,4.364
	c0,2.448-1.969,4.417-4.416,4.417C425.085,8.78,423.17,6.812,423.17,4.364z M121.58,17.934c1.34-4.364,4.263-6.758,7.998-6.758
	h12.794v2.714c2.347-1.916,4.215-2.714,6.512-2.714c3.019,0,6.897,1.809,6.897,8.567v11.176h5.481
	c-1.077-1.914-1.668-4.239-1.668-6.918c0-7.875,5.126-13.623,12.212-13.623c6.801,0,12.261,5.8,11.686,14.847h-16.569
	c0.047,2.874,1.436,5.694,5.555,5.694h14.89c-0.073-0.523-0.112-1.072-0.112-1.65v-11.92h-3.306v-5.801h10.632v15.699
	c0,2.447,0.526,3.246,2.203,3.246c1.148,0,2.442-0.639,3.879-1.81V17.348h-3.018v-5.801h10.345v19.371h8.909v-13.57h-4.214v-5.801
	h11.541v2.076c2.633-1.703,4.837-2.448,7.184-2.448c3.018,0,5.507,1.224,6.943,3.458c3.257-2.448,5.795-3.458,8.955-3.458
	c4.119,0,7.759,1.916,7.759,8.301v11.122h19.15V6.705h-3.831v-6.12h28.589v6.12h-16.281v8.302h8.141v6.12h-8.141v9.472h10.104
	v-5.374h6.177v5.694h6.434v-13.57h-4.214v-5.801h11.542v2.076c2.633-1.703,4.836-2.448,7.183-2.448c3.017,0,5.508,1.224,6.943,3.458
	c3.257-2.448,5.795-3.458,8.956-3.458c4.118,0,7.758,1.916,7.758,8.301v11.442h6.849v-13.57h-3.832v-5.801h11.159v3.193
	c2.011-2.501,4.022-3.565,6.561-3.565h23.133c6.609,0,11.925,4.47,11.925,12.931c0,2.585-0.522,4.882-1.463,6.812h6.56v-13.57h-3.83
	v-5.801h10.392v6.386c1.342-4.364,4.261-6.758,7.997-6.758h12.752v19.743h6.159c-0.073-0.523-0.113-1.072-0.113-1.65v-11.92h-3.304
	v-5.801h10.631v15.699c0,2.447,0.527,3.246,2.203,3.246c1.15,0,2.442-0.639,3.88-1.81V17.348h-3.019v-5.801h10.345v19.371h8.91
	v-13.57h-4.215v-5.801h11.541v2.076c2.634-1.703,4.837-2.448,7.183-2.448c3.017,0,5.509,1.224,6.945,3.458
	c3.256-2.448,5.794-3.458,8.955-3.458c4.119,0,7.757,1.916,7.757,8.301v11.442l4.503-0.008c2.9,0,4.518-0.762,5.409-1.863
	c-1.388-0.727-2.328-2.162-2.328-3.854c0-2.448,1.969-4.417,4.416-4.417c2.439,0,4.349,1.955,4.362,4.39
	c0,0,0.002,1.072,0.002,1.078c0,8.811-5.935,10.474-11.861,10.474h-11.828V22.084c0-2.768-0.911-4.045-2.97-4.045
	c-1.581,0-3.257,0.586-5.124,1.703v11.176h4.07v5.8h-11.398V22.084c0-2.874-0.861-4.045-2.921-4.045
	c-1.628,0-3.017,0.479-5.172,1.703v11.176h4.07v5.8h-27.633V34.59c-2.203,1.702-4.312,2.5-6.467,2.5
	c-0.883,0-1.69-0.131-2.427-0.372h-21.193v-5.8h3.303v-13.57h-4.165c-5.844,0-8.489,5.8-8.489,10.909v2.661h4.404v5.8h-24.893
	c-1.19,0.38-2.481,0.585-3.861,0.585c-6.704,0-11.877-4.842-11.877-13.197c0-2.874,0.616-5.238,1.648-7.131h-4.829
	c0.983,2.06,1.55,4.551,1.55,7.291c0,7.663-4.022,13.037-9.721,13.037c-2.49,0-4.406-0.904-6.465-3.139V42.2h4.311V48h-15.47V42.2
	h3.832v-5.481H336.25V22.084c0-2.768-0.91-4.045-2.969-4.045c-1.58,0-3.257,0.586-5.125,1.703v11.176h4.071v5.8h-11.398V22.084
	c0-2.874-0.861-4.045-2.921-4.045c-1.628,0-3.017,0.479-5.171,1.703v11.176h4.069v5.8h-69.067V22.084
	c0-2.768-0.909-4.045-2.968-4.045c-1.581,0-3.257,0.586-5.125,1.703v11.176h4.071v5.8H232.32V22.084
	c0-2.874-0.862-4.045-2.922-4.045c-1.629,0-3.017,0.479-5.172,1.703v11.176h4.07v5.8h-27.634V34.59
	c-2.203,1.702-4.311,2.5-6.465,2.5c-0.884,0-1.692-0.131-2.427-0.372h-43.317V20.753c0-2.021-0.766-2.82-2.107-2.82
	c-1.245,0-2.634,0.585-3.975,1.649v11.335h3.017v5.8h-13.84v-5.8h3.496v-13.57h-4.358c-5.842,0-8.34,5.8-8.34,10.909v2.661h4.406
	v5.8H74.228V20.594c0-2.182-0.672-3.033-2.3-3.033c-1.197,0-2.203,0.426-3.83,1.543v11.814h3.304v5.8c0,0-8.608,0-20.668,0
	c-2.872,0-5.985-1.543-5.985-6.013V17.348h-2.874v-5.801h2.874V6.705h-20.58v8.302h8.141v6.12h-8.141v9.472h10.104v-5.374h6.178
	v11.494h-28.59v-6.12h3.832V6.705h-3.832c-2.901,0-4.518,0.762-5.41,1.862c1.387,0.727,2.328,2.163,2.328,3.854
	c0,2.448-1.969,4.417-4.416,4.417c-2.438,0-4.348-1.77-4.362-4.206c0,0-0.001-1.256-0.001-1.262C0,2.214,5.933,0.585,11.861,0.585
	h40.215v10.962h4.07v5.801h-4.07v10.909c0,2.182,0.335,2.661,1.867,2.661h6.827V6.386h-3.495v-5.8h10.823V13.57
	c2.729-2.022,4.165-2.607,6.416-2.607c4.693,0,7.039,3.618,7.039,7.875v12.081h5.655c-1.076-1.914-1.667-4.239-1.667-6.918
	c0-7.875,5.124-13.623,12.211-13.623c6.801,0,12.26,5.8,11.685,14.847H92.868c0.049,2.874,1.437,5.694,5.557,5.694h16.595v-13.57
	h-3.831v-5.801h10.392V17.934z M166.922,20.754h9.434c-0.383-3.193-2.155-5.108-4.788-5.108
	C168.933,15.646,167.354,17.295,166.922,20.754z M92.868,20.754h9.434c-0.382-3.193-2.154-5.108-4.787-5.108
	C94.879,15.646,93.299,17.295,92.868,20.754z M366.515,24.266c0-4.044-1.676-6.492-4.452-6.492c-2.779,0-4.359,2.448-4.359,6.599
	c0,4.098,1.725,6.705,4.454,6.705C364.886,31.078,366.515,28.524,366.515,24.266z M387.446,31.078c2.874,0,4.502-2.554,4.502-6.971
	c0-4.364-1.628-6.918-4.502-6.918s-4.453,2.554-4.453,7.078C382.993,28.524,384.667,31.078,387.446,31.078z"/>
</svg>
